<?xml version="1.0" standalone="no"?>
<!DOCTYPE svg PUBLIC "-//W3C//DTD SVG 20010904//EN"
 "http://www.w3.org/TR/2001/REC-SVG-20010904/DTD/svg10.dtd">
<svg version="1.0" xmlns="http://www.w3.org/2000/svg"
 width="260.000000pt" height="260.000000pt" viewBox="0 0 260.000000 260.000000"
 preserveAspectRatio="xMidYMid meet">
<metadata>
Created by potrace 1.11, written by Peter Selinger 2001-2013
</metadata>
<g transform="translate(0.000000,260.000000) scale(0.100000,-0.100000)"
fill="#000000" stroke="none">
<path d="M1091 2584 c-132 -18 -255 -59 -401 -135 -281 -145 -492 -364 -634
-658 l-51 -106 -3 -842 -2 -843 279 0 280 0 4 933 c3 1030 -1 966 68 1106 77
156 240 245 464 253 l80 3 3 -234 c1 -150 -1 -238 -8 -245 -13 -13 -13 -106 0
-106 7 0 10 -292 10 -855 l0 -855 120 0 120 0 2 1148 3 1147 80 -3 c224 -8
387 -97 464 -253 69 -140 65 -76 68 -1106 l4 -933 280 0 279 0 -2 842 -3 843
-51 106 c-104 215 -254 400 -433 534 -103 78 -285 173 -406 214 -169 56 -403
73 -614 45z"/>
<path d="M690 1855 l0 -125 85 0 85 0 0 125 0 125 -85 0 -85 0 0 -125z"/>
<path d="M920 1855 l0 -125 85 0 85 0 0 125 0 125 -85 0 -85 0 0 -125z"/>
<path d="M1500 1855 l0 -125 85 0 85 0 0 125 0 125 -85 0 -85 0 0 -125z"/>
<path d="M1740 1855 l0 -125 85 0 85 0 0 125 0 125 -85 0 -85 0 0 -125z"/>
<path d="M690 1540 l0 -130 85 0 85 0 0 130 0 130 -85 0 -85 0 0 -130z"/>
<path d="M920 1540 l0 -130 85 0 85 0 0 130 0 130 -85 0 -85 0 0 -130z"/>
<path d="M1500 1540 l0 -130 85 0 85 0 0 130 0 130 -85 0 -85 0 0 -130z"/>
<path d="M1740 1540 l0 -130 85 0 85 0 0 130 0 130 -85 0 -85 0 0 -130z"/>
</g>
</svg>
